<mxfile host="65bd71144e">
    <diagram id="vCmYkwV_0DvBoXGq2oan" name="Page-1">
        <mxGraphModel dx="642" dy="680" grid="1" gridSize="10" guides="1" tooltips="1" connect="1" arrows="1" fold="1" page="1" pageScale="1" pageWidth="850" pageHeight="1100" math="0" shadow="0">
            <root>
                <mxCell id="0"/>
                <mxCell id="1" parent="0"/>
                <mxCell id="3" value="USER SERVICE" style="rounded=0;whiteSpace=wrap;html=1;" vertex="1" parent="1">
                    <mxGeometry x="349" y="80" width="270" height="50" as="geometry"/>
                </mxCell>
                <mxCell id="4" value="AUTHENTICATION SERVICE" style="rounded=0;whiteSpace=wrap;html=1;" vertex="1" parent="1">
                    <mxGeometry x="10" y="80" width="270" height="50" as="geometry"/>
                </mxCell>
                <mxCell id="6" value="&lt;font style=&quot;font-size: 20px&quot;&gt;Post('signup) -- &amp;gt; Request body -- email, password,first name and lastname,phone number,DOB --&amp;gt; Response -- success or failure&lt;br&gt;&lt;br&gt;Post('signin') --&amp;gt; Request body --&amp;gt; email and password --&amp;gt; Response body --&amp;gt; Token&lt;br&gt;&lt;br&gt;Post('forgotpassword) --&amp;gt; Request body --&amp;gt; email -&amp;gt; Response body -&amp;gt; success or failure&lt;br&gt;&lt;/font&gt;" style="whiteSpace=wrap;html=1;aspect=fixed;align=left;" vertex="1" parent="1">
                    <mxGeometry x="10" y="150" width="310" height="310" as="geometry"/>
                </mxCell>
                <mxCell id="7" value="Get('verifyUserByBvn') --&amp;gt; Request body --&amp;gt; bvn --&amp;gt; Response body --&amp;gt; bvn object&lt;br&gt;&lt;br&gt;Get('GetUserById') --&amp;gt; Request -&amp;gt; userId --&amp;gt; Response -&amp;gt; User object&lt;br&gt;&lt;br&gt;Post('VerifyOtp') --&amp;gt; Request body --&amp;gt; otp --&amp;gt; Response body --&amp;gt; success or failure" style="whiteSpace=wrap;html=1;aspect=fixed;fontSize=20;align=left;" vertex="1" parent="1">
                    <mxGeometry x="349" y="140" width="270" height="270" as="geometry"/>
                </mxCell>
            </root>
        </mxGraphModel>
    </diagram>
</mxfile>